<svg width="1000" height="898" viewBox="0 0 1000 898" fill="none" xmlns="http://www.w3.org/2000/svg">
<g clip-path="url(#clip0_39_45)">
<path d="M408 73.4548L448.084 33M408 73.4548H453M408 73.4548L473.137 144.65L485.19 157.825M448.084 33L453 73.4548M448.084 33H473.137H485.663M548.294 33L588 73.4548M548.294 33L543 73.4548M548.294 33H523.242H510.715M588 73.4548H543M588 73.4548L523.242 143.057L509.502 157.825M453 73.4548H498H543M453 73.4548L485.663 33M453 73.4548L485.19 157.825M543 73.4548L510.715 33M543 73.4548L509.502 157.825M485.663 33H498.189H510.715M485.19 157.825L497.244 171L509.502 157.825" stroke="#CF2395" stroke-width="8"/>
<path d="M848.998 595C812.274 749.748 671.344 865 503.092 865L500.795 864.993C333.558 863.95 193.743 749.043 157.187 595H172.631C209.042 741.269 343.036 850 503.092 850C663.148 850 797.143 741.269 833.554 595H848.998ZM505.39 165.007C657.798 165.958 787.433 261.475 836.893 395H820.833C771.847 269.343 648.177 180 503.092 180C358.007 180 234.336 269.343 185.351 395H169.292C219 260.805 349.69 165 503.092 165L505.39 165.007Z" fill="#E9B042"/>
<path d="M72.0176 451.541H61.7559V490.23H70.9082C71.4629 490.23 72.0176 490.23 72.5723 490.23C82.4642 489.491 87.4102 482.973 87.4102 470.678C87.4102 469.383 87.3639 468.135 87.2715 466.934C86.1621 456.672 81.0775 451.541 72.0176 451.541ZM75.623 531H33.6055V527.256H44.6992V451.541H33.6055V447.797H78.2578C84.4518 447.797 89.7214 448.86 94.0664 450.986C101.832 454.777 105.715 461.063 105.715 469.846C105.715 473.636 104.975 477.103 103.496 480.246C99.0586 489.676 89.028 494.391 73.4043 494.391H61.7559V527.256H71.8789C73.8203 527.441 75.0684 528.689 75.623 531ZM132.04 451.541V447.797H171.146V451.541H160.052V499.244C160.052 504.051 160.422 508.258 161.161 511.863C163.473 522.865 169.852 528.365 180.298 528.365C195.275 528.273 202.809 518.612 202.902 499.383V451.541H191.808V447.797H218.988V451.541H207.894V498.551C207.894 504.837 207.2 510.245 205.814 514.775C202.023 526.516 192.547 532.387 177.386 532.387C154.736 532.294 143.319 521.57 143.134 500.215V451.541H132.04ZM285.251 531H246.006V527.256H257.1V451.541H246.006V447.797H290.659C297.962 447.797 304.156 449.507 309.241 452.928C315.342 457.088 318.393 462.635 318.393 469.568C318.393 471.88 318.023 474.191 317.284 476.502C314.695 483.99 308.686 488.982 299.256 491.479L321.028 527.395H323.94C324.495 527.395 325.049 527.441 325.604 527.533C326.806 527.811 327.407 528.966 327.407 531L304.11 531.139L283.032 493.004H274.157V527.256H285.251V531ZM283.725 451.541H274.157V488.844H284.557C287.793 488.844 290.659 487.965 293.155 486.209C297.87 482.788 300.227 477.38 300.227 469.984C300.227 467.118 299.765 464.438 298.84 461.941C296.252 455.008 291.213 451.541 283.725 451.541ZM399.355 446.41C409.525 446.41 418.4 449.23 425.98 454.869C436.704 462.82 442.066 474.376 442.066 489.537C442.066 502.295 437.721 512.742 429.031 520.877C420.803 528.55 410.773 532.387 398.939 532.387C388.493 532.387 379.34 529.336 371.482 523.234C361.036 515.099 355.812 503.682 355.812 488.982C355.812 476.225 360.204 465.824 368.986 457.781C377.306 450.201 387.43 446.41 399.355 446.41ZM399.355 528.365C401.574 528.365 403.654 528.134 405.596 527.672C417.059 524.621 422.791 511.725 422.791 488.982C422.791 482.973 422.375 477.658 421.543 473.035C418.862 457.966 411.327 450.432 398.939 450.432C398.107 450.432 397.229 450.478 396.305 450.57C382.16 451.865 375.088 464.854 375.088 489.537C375.088 497.673 375.827 504.56 377.306 510.199C380.542 522.31 387.892 528.365 399.355 528.365ZM575.147 493.004H613.282V496.748H603.852V531L588.737 527.672C582.635 530.723 575.84 532.248 568.352 532.248C558.922 532.248 550.51 529.752 543.114 524.76C531.65 516.902 525.918 504.976 525.918 488.982C525.918 476.04 529.94 465.639 537.983 457.781C545.933 450.201 555.964 446.41 568.075 446.41C574.916 446.41 581.433 447.797 587.627 450.57L600.385 447.936L600.94 476.502H596.918C595.809 471.787 594.468 467.719 592.897 464.299C588.459 455.146 581.11 450.57 570.848 450.57C553.745 450.663 545.148 463.652 545.055 489.537C545.055 496.378 545.61 502.295 546.719 507.287C549.77 521.154 557.582 528.088 570.155 528.088C577.088 528.088 582.774 525.915 587.211 521.57V496.748H575.147V493.004ZM688.558 446.41C698.728 446.41 707.603 449.23 715.183 454.869C725.907 462.82 731.269 474.376 731.269 489.537C731.269 502.295 726.924 512.742 718.234 520.877C710.006 528.55 699.976 532.387 688.142 532.387C677.696 532.387 668.543 529.336 660.685 523.234C650.239 515.099 645.015 503.682 645.015 488.982C645.015 476.225 649.407 465.824 658.189 457.781C666.509 450.201 676.633 446.41 688.558 446.41ZM688.558 528.365C690.777 528.365 692.857 528.134 694.799 527.672C706.262 524.621 711.994 511.725 711.994 488.982C711.994 482.973 711.578 477.658 710.746 473.035C708.065 457.966 700.53 450.432 688.142 450.432C687.31 450.432 686.432 450.478 685.508 450.57C671.363 451.865 664.291 464.854 664.291 489.537C664.291 497.673 665.03 504.56 666.509 510.199C669.745 522.31 677.095 528.365 688.558 528.365ZM829.011 531H763.28V527.256H774.374V451.541H763.28V447.797H803.218V451.541H791.431V527.256H807.239C809.828 527.256 812.093 526.794 814.034 525.869C817.732 524.113 820.552 519.999 822.493 513.527L825.96 501.602H829.565L829.011 531ZM856.307 447.797H896.522C906.599 447.797 915.381 450.201 922.869 455.008C934.425 462.496 940.203 474.006 940.203 489.537C940.203 501.74 936.136 511.678 928 519.352C919.772 527.117 909.326 531 896.66 531H856.307V527.256H867.401V451.541H856.307V447.797ZM896.66 451.541H884.457V527.256H896.66C899.711 527.256 902.485 526.84 904.981 526.008C915.797 522.495 921.205 510.153 921.205 488.982C921.205 480.477 920.373 473.451 918.709 467.904C915.289 456.995 907.939 451.541 896.66 451.541Z" fill="#CF2395"/>
<g filter="url(#filter0_d_39_45)">
<path d="M276.752 653.696C276.176 653.696 275.576 653.672 274.952 653.624C274.376 653.576 273.752 653.504 273.08 653.408C270.68 653.024 268.352 652.208 266.096 650.96C263.888 649.712 261.896 648.128 260.12 646.208C258.344 644.288 256.904 642.152 255.8 639.8C255.656 639.56 255.584 639.368 255.584 639.224C255.584 638.888 255.752 638.72 256.088 638.72C256.376 638.72 256.592 638.864 256.736 639.152C257.12 639.824 257.6 640.52 258.176 641.24C258.752 641.912 259.424 642.608 260.192 643.328C263.984 646.688 268.088 648.368 272.504 648.368C275.624 648.368 277.976 647.936 279.56 647.072C281.144 646.256 281.936 645.104 281.936 643.616C281.936 642.08 281.048 640.28 279.272 638.216C278.792 637.688 278.288 637.136 277.76 636.56C277.232 635.984 276.704 635.36 276.176 634.688L272.648 630.296C270.584 627.752 268.88 625.448 267.536 623.384C266.192 621.272 265.52 619.136 265.52 616.976C265.52 615.872 265.736 614.72 266.168 613.52C266.6 612.272 267.272 610.952 268.184 609.56C264.824 609.032 262.04 608.48 259.832 607.904C257.672 607.28 256.184 606.656 255.368 606.032C254.744 605.648 254.288 605.288 254 604.952C253.712 604.568 253.568 604.28 253.568 604.088C253.568 603.752 253.808 603.584 254.288 603.584C254.816 603.584 255.488 603.824 256.304 604.304C257.6 605.216 259.4 605.936 261.704 606.464C264.056 606.944 266.672 607.304 269.552 607.544L271.064 605.816C272.648 603.992 274.544 602.456 276.752 601.208C279.008 599.912 281.384 598.88 283.88 598.112C286.376 597.296 288.824 596.696 291.224 596.312C293.672 595.928 295.88 595.736 297.848 595.736C299.144 595.736 300.536 595.952 302.024 596.384C303.512 596.768 304.784 597.368 305.84 598.184C306.896 599 307.424 600.056 307.424 601.352C307.424 601.928 307.328 602.432 307.136 602.864C305.936 606.176 301.688 608.408 294.392 609.56C292.616 609.848 290.72 610.064 288.704 610.208C286.736 610.304 284.72 610.352 282.656 610.352C281.12 610.352 279.56 610.328 277.976 610.28C276.44 610.184 274.928 610.088 273.44 609.992C270.944 612.488 269.696 615.344 269.696 618.56C269.696 621.92 271.064 625.304 273.8 628.712C274.904 630.056 276.032 631.352 277.184 632.6C278.384 633.8 279.584 635.024 280.784 636.272C281.024 636.464 281.264 636.68 281.504 636.92C281.744 637.16 281.984 637.4 282.224 637.64C283.808 639.176 284.96 640.712 285.68 642.248C286.448 643.736 286.832 645.128 286.832 646.424C286.832 648.536 285.944 650.264 284.168 651.608C282.392 653 279.92 653.696 276.752 653.696ZM275.96 607.904C279.224 607.856 282.608 607.664 286.112 607.328C289.616 606.944 292.856 606.368 295.832 605.6C298.808 604.832 301.136 603.824 302.816 602.576C303.632 601.904 304.04 601.472 304.04 601.28C304.04 600.896 303.2 600.608 301.52 600.416C300.848 600.32 300.152 600.248 299.432 600.2C298.712 600.152 298.016 600.128 297.344 600.128C292.16 600.128 287.168 601.376 282.368 603.872C281.216 604.496 280.088 605.144 278.984 605.816C277.928 606.44 276.92 607.136 275.96 607.904ZM312.673 647.576C310.609 647.576 309.577 646.304 309.577 643.76C309.577 641.984 310.081 639.608 311.089 636.632C310.177 637.928 309.145 639.224 307.993 640.52C306.889 641.816 305.785 642.896 304.681 643.76C303.577 644.624 302.545 645.056 301.585 645.056C300.097 645.056 299.065 644.552 298.489 643.544C297.961 642.536 297.697 641.408 297.697 640.16C297.697 639.344 297.745 638.552 297.841 637.784C297.985 637.016 298.153 636.344 298.345 635.768C299.257 633.272 300.409 630.68 301.801 627.992C303.193 625.304 304.729 622.712 306.409 620.216C308.089 617.672 309.769 615.488 311.449 613.664C312.697 612.416 313.681 611.792 314.401 611.792C314.881 611.792 315.121 612.056 315.121 612.584C315.121 612.968 314.953 613.52 314.617 614.24C314.281 614.912 313.777 615.656 313.105 616.472C312.577 617.096 311.857 618.248 310.945 619.928C310.033 621.56 309.049 623.408 307.993 625.472C306.985 627.536 306.001 629.6 305.041 631.664C304.129 633.728 303.361 635.528 302.737 637.064C301.969 638.792 301.585 640.184 301.585 641.24C301.585 642.152 301.873 642.608 302.449 642.608C303.313 642.608 304.513 641.696 306.049 639.872C306.433 639.392 306.985 638.672 307.705 637.712C308.473 636.752 309.265 635.696 310.081 634.544C310.945 633.392 311.761 632.264 312.529 631.16C313.297 630.008 313.897 629.048 314.329 628.28L315.985 625.328C316.225 624.8 316.705 624.368 317.425 624.032C318.193 623.648 318.961 623.456 319.729 623.456C320.401 623.456 320.737 623.792 320.737 624.464C320.737 625.04 320.617 625.616 320.377 626.192C320.185 626.768 319.897 627.392 319.513 628.064C318.841 629.216 318.145 630.584 317.425 632.168C316.753 633.704 316.177 635.192 315.697 636.632C315.217 638.072 314.905 639.248 314.761 640.16C314.665 640.64 314.593 641.096 314.545 641.528C314.497 641.912 314.473 642.296 314.473 642.68C314.473 643.112 314.497 643.424 314.545 643.616C314.641 644.048 314.785 644.264 314.977 644.264C315.169 644.264 315.361 644.192 315.553 644.048C316.417 643.568 317.353 642.896 318.361 642.032C319.369 641.168 320.449 640.064 321.601 638.72C322.129 638.192 322.585 637.688 322.969 637.208C323.401 636.68 323.809 636.176 324.193 635.696C324.337 635.456 324.553 635.336 324.841 635.336C325.417 635.336 325.705 635.672 325.705 636.344C325.705 636.632 325.561 636.92 325.273 637.208C324.793 637.832 324.265 638.456 323.689 639.08C323.161 639.704 322.633 640.352 322.105 641.024C321.049 642.224 319.921 643.424 318.721 644.624C317.809 645.536 316.801 646.256 315.697 646.784C314.593 647.312 313.585 647.576 312.673 647.576ZM343.034 647.648C342.074 647.648 341.282 647.288 340.658 646.568C340.082 645.848 339.794 644.84 339.794 643.544C339.794 642.632 339.938 641.648 340.226 640.592C340.322 640.208 340.562 639.56 340.946 638.648C341.378 637.688 341.81 636.728 342.242 635.768C342.386 635.528 342.506 635.288 342.602 635.048C341.21 636.872 339.674 638.504 337.994 639.944C336.314 641.336 334.538 642.032 332.666 642.032C331.034 641.984 329.882 641.552 329.21 640.736C328.538 639.872 328.202 638.84 328.202 637.64C328.202 636.296 328.49 634.832 329.066 633.248C329.69 631.664 330.362 630.272 331.082 629.072C332.33 627.104 333.842 625.184 335.618 623.312C337.442 621.392 339.386 619.808 341.45 618.56C343.514 617.312 345.482 616.688 347.354 616.688C349.466 616.688 351.386 617.384 353.114 618.776C353.546 619.112 353.834 619.472 353.978 619.856C354.17 620.24 354.266 620.576 354.266 620.864C354.266 621.296 354.146 621.656 353.906 621.944C353.666 622.232 353.378 622.376 353.042 622.376C352.514 622.376 352.106 621.992 351.818 621.224C351.53 620.408 351.146 619.832 350.666 619.496C350.186 619.16 349.658 618.992 349.082 618.992C347.93 618.992 346.61 619.52 345.122 620.576C343.634 621.632 342.17 622.928 340.73 624.464C339.05 626.144 337.562 627.992 336.266 630.008C335.018 631.976 334.058 633.776 333.386 635.408C332.762 636.8 332.45 637.856 332.45 638.576C332.45 639.248 332.714 639.584 333.242 639.584C333.962 639.584 335.066 638.984 336.554 637.784C337.61 636.968 338.738 635.912 339.938 634.616C341.186 633.32 342.362 632.024 343.466 630.728C344.57 629.432 345.434 628.424 346.058 627.704C346.298 627.32 346.514 626.96 346.706 626.624C346.946 626.288 347.162 626 347.354 625.76C347.882 625.04 348.698 624.68 349.802 624.68C350.522 624.68 351.122 624.848 351.602 625.184C352.13 625.52 352.274 625.976 352.034 626.552C351.89 626.792 351.698 627.152 351.458 627.632C351.218 628.064 350.93 628.616 350.594 629.288C349.97 630.44 349.274 631.784 348.506 633.32C347.738 634.856 347.018 636.296 346.346 637.64C345.674 638.984 345.17 640.04 344.834 640.808C344.114 642.248 343.754 643.28 343.754 643.904C343.754 644.336 343.922 644.552 344.258 644.552C344.402 644.552 344.57 644.504 344.762 644.408C345.002 644.312 345.266 644.192 345.554 644.048C346.418 643.568 347.354 642.896 348.362 642.032C349.37 641.168 350.45 640.064 351.602 638.72C352.13 638.192 352.61 637.688 353.042 637.208C353.474 636.68 353.882 636.176 354.266 635.696C354.41 635.456 354.602 635.336 354.842 635.336C355.418 635.336 355.706 635.672 355.706 636.344C355.706 636.68 355.586 636.968 355.346 637.208C354.818 637.88 354.29 638.528 353.762 639.152C353.234 639.776 352.682 640.4 352.106 641.024C351.578 641.648 351.026 642.272 350.45 642.896C349.922 643.52 349.346 644.096 348.722 644.624C347.666 645.68 346.634 646.448 345.626 646.928C344.666 647.408 343.802 647.648 343.034 647.648ZM393.515 660.032C392.363 660.032 391.427 659.504 390.707 658.448C390.035 657.44 389.699 656.24 389.699 654.848C389.699 654.512 389.723 654.176 389.771 653.84C389.867 653.504 389.939 653.168 389.987 652.832C390.227 651.872 390.611 650.696 391.139 649.304C391.667 647.912 392.267 646.448 392.939 644.912C393.611 643.376 394.307 641.912 395.027 640.52C395.747 639.08 396.419 637.856 397.043 636.848C397.283 636.512 397.667 635.912 398.195 635.048C398.723 634.136 399.275 633.176 399.851 632.168C400.475 631.16 400.979 630.272 401.363 629.504C401.795 628.688 402.107 628.04 402.299 627.56C402.491 627.08 402.587 626.744 402.587 626.552C402.587 626.408 402.539 626.336 402.443 626.336C402.203 626.336 401.603 626.744 400.643 627.56C399.443 628.616 398.099 629.96 396.611 631.592C395.123 633.176 393.635 634.904 392.147 636.776C390.659 638.648 389.315 640.472 388.115 642.248C387.395 643.64 386.339 644.336 384.947 644.336C383.651 644.336 383.003 643.688 383.003 642.392C383.003 641.288 383.555 639.776 384.659 637.856C385.763 635.936 386.987 633.944 388.331 631.88C389.243 630.488 390.131 629.072 390.995 627.632C391.859 626.192 392.579 624.872 393.155 623.672C393.539 622.856 393.827 622.208 394.019 621.728C394.211 621.2 394.307 620.84 394.307 620.648C394.307 620.024 393.371 620.552 391.499 622.232C391.019 622.664 390.515 623.144 389.987 623.672C389.459 624.152 388.907 624.728 388.331 625.4C387.179 626.648 386.003 628.04 384.803 629.576C383.603 631.064 382.427 632.6 381.275 634.184C380.699 635 380.147 635.792 379.619 636.56C379.091 637.328 378.563 638.096 378.035 638.864C376.979 640.352 376.043 641.744 375.227 643.04C374.411 644.336 373.787 645.416 373.355 646.28C373.163 646.76 372.875 647.096 372.491 647.288C372.155 647.48 371.795 647.576 371.411 647.576C370.931 647.576 370.499 647.384 370.115 647C369.683 646.568 369.515 645.968 369.611 645.2L369.683 645.128C370.739 643.064 371.603 641.216 372.275 639.584C372.995 637.904 373.667 636.248 374.291 634.616C374.819 633.176 375.371 631.712 375.947 630.224C376.571 628.736 377.339 627.128 378.251 625.4C378.635 624.584 379.355 623.84 380.411 623.168C381.515 622.496 382.475 622.16 383.291 622.16C384.299 622.16 384.803 622.52 384.803 623.24C384.803 623.72 384.539 624.368 384.011 625.184C383.483 626.048 382.787 627.272 381.923 628.856C381.059 630.44 380.219 632.024 379.403 633.608C380.171 632.504 381.035 631.328 381.995 630.08C382.955 628.784 383.963 627.464 385.019 626.12C386.315 624.536 387.659 623.048 389.051 621.656C392.123 618.632 394.595 617.264 396.467 617.552C398.483 617.888 399.491 619.088 399.491 621.152C399.491 621.68 399.203 622.448 398.627 623.456C398.099 624.464 397.427 625.568 396.611 626.768C395.843 627.92 395.075 629.048 394.307 630.152C393.827 630.824 393.371 631.472 392.939 632.096C392.507 632.672 392.171 633.176 391.931 633.608C391.739 633.944 391.451 634.376 391.067 634.904C390.731 635.432 390.371 636.008 389.987 636.632C390.755 635.576 391.571 634.496 392.435 633.392C393.299 632.288 394.139 631.28 394.955 630.368C396.779 628.304 398.483 626.72 400.067 625.616C401.699 624.464 403.043 623.888 404.099 623.888C405.971 623.888 406.907 624.824 406.907 626.696C406.907 627.848 405.827 630.272 403.667 633.968C403.331 634.592 402.827 635.576 402.155 636.92C401.483 638.264 400.763 639.704 399.995 641.24C399.275 642.776 398.627 644.144 398.051 645.344C397.475 646.592 396.851 647.984 396.179 649.52C395.555 651.104 395.003 652.616 394.523 654.056C394.043 655.496 393.755 656.648 393.659 657.512C393.611 657.704 393.683 657.824 393.875 657.872C394.211 657.872 394.667 657.704 395.243 657.368C395.771 657.08 396.587 656.384 397.691 655.28C398.795 654.176 399.995 652.928 401.291 651.536C402.635 650.192 403.859 648.896 404.963 647.648C406.067 646.448 406.859 645.56 407.339 644.984L410.723 641.024C411.203 640.448 411.587 639.992 411.875 639.656C412.211 639.272 412.475 638.984 412.667 638.792L414.107 637.136C414.347 636.848 414.587 636.56 414.827 636.272C415.067 635.984 415.307 635.72 415.547 635.48C415.739 635.24 415.955 635.12 416.195 635.12C416.771 635.12 417.059 635.432 417.059 636.056C417.059 636.392 416.915 636.704 416.627 636.992C416.099 637.664 415.523 638.36 414.899 639.08C414.323 639.8 413.771 640.472 413.243 641.096L408.923 646.496L401.723 655.352C400.763 656.456 399.563 657.512 398.123 658.52C396.731 659.528 395.195 660.032 393.515 660.032ZM421.675 657.728C419.659 657.728 418.099 656.912 416.995 655.28C415.938 653.696 415.41 651.488 415.41 648.656C415.41 647.696 415.482 646.688 415.626 645.632C415.962 642.944 416.779 640.184 418.075 637.352C419.371 634.52 421.123 631.688 423.331 628.856C424.915 626.792 426.691 625.208 428.659 624.104C430.627 622.952 432.547 622.376 434.419 622.376C435.763 622.376 436.939 622.64 437.947 623.168C439.195 623.888 439.819 625.112 439.819 626.84C439.819 628.088 439.387 629.48 438.523 631.016C437.659 632.504 436.171 633.944 434.059 635.336C431.371 637.016 429.091 638.168 427.219 638.792C425.395 639.368 423.931 639.704 422.827 639.8C422.491 640.328 422.131 641.144 421.747 642.248C421.411 643.304 421.099 644.432 420.811 645.632C420.571 646.784 420.403 647.816 420.307 648.728C420.307 648.92 420.283 649.112 420.235 649.304C420.235 649.544 420.235 649.784 420.235 650.024C420.235 653.288 421.267 654.92 423.331 654.92C424.435 654.92 425.683 654.512 427.075 653.696C428.515 652.88 429.907 651.896 431.251 650.744C432.643 649.592 433.867 648.464 434.923 647.36C436.027 646.304 436.795 645.512 437.227 644.984L442.555 638.792L443.995 637.136C444.235 636.848 444.475 636.56 444.715 636.272C444.955 635.984 445.195 635.72 445.435 635.48C445.627 635.24 445.843 635.12 446.083 635.12C446.611 635.12 446.875 635.408 446.875 635.984C446.875 636.272 446.731 636.608 446.443 636.992C445.963 637.664 445.411 638.36 444.787 639.08C444.211 639.8 443.659 640.472 443.131 641.096L440.683 644.048C439.723 645.2 438.691 646.424 437.587 647.72C436.483 649.064 435.403 650.24 434.347 651.248C429.883 655.568 425.659 657.728 421.675 657.728ZM423.979 637.784C424.939 637.544 426.067 637.04 427.363 636.272C428.707 635.504 429.979 634.688 431.179 633.824C432.427 632.96 433.387 632.24 434.059 631.664C435.067 630.848 435.835 629.936 436.363 628.928C436.891 627.92 437.155 627.056 437.155 626.336C437.155 625.328 436.747 624.824 435.931 624.824C435.547 624.824 435.139 624.92 434.707 625.112C433.555 625.64 432.307 626.648 430.963 628.136C429.619 629.624 428.323 631.256 427.075 633.032C425.875 634.808 424.843 636.392 423.979 637.784ZM447.611 660.032C446.411 660.032 445.499 659.552 444.875 658.592C444.203 657.68 443.867 656.408 443.867 654.776C443.867 654.392 443.891 653.96 443.939 653.48C443.987 653 444.059 652.52 444.155 652.04C444.971 647.624 446.195 642.992 447.827 638.144C449.507 633.296 451.595 628.472 454.091 623.672C452.747 624.104 451.499 624.416 450.347 624.608C449.243 624.8 448.235 624.896 447.323 624.896C446.267 624.896 445.499 624.776 445.019 624.536C444.539 624.248 444.299 623.984 444.299 623.744C444.299 623.264 444.779 623.024 445.739 623.024C445.979 623.024 446.219 623.048 446.459 623.096C446.699 623.096 446.915 623.096 447.107 623.096C449.267 623.096 452.003 622.448 455.315 621.152C458.099 616.112 461.075 611.504 464.243 607.328C467.411 603.104 470.699 599.432 474.107 596.312C475.499 595.064 476.843 594.152 478.139 593.576C479.483 592.952 480.683 592.64 481.739 592.64C482.987 592.64 484.019 593.072 484.835 593.936C485.699 594.752 486.131 596.048 486.131 597.824C486.131 598.784 485.915 599.816 485.483 600.92C484.235 604.04 481.787 607.136 478.139 610.208C477.227 610.976 476.291 611.72 475.331 612.44C474.371 613.16 473.411 613.856 472.451 614.528C470.435 615.872 468.323 617.144 466.115 618.344C463.955 619.544 461.819 620.576 459.707 621.44C456.443 627.104 453.851 632.624 451.931 638C449.867 643.904 448.787 648.944 448.691 653.12C448.691 655.04 449.123 656 449.987 656C450.275 656 450.587 655.928 450.923 655.784C451.259 655.64 451.667 655.472 452.147 655.28C453.587 654.416 454.835 653.528 455.891 652.616C456.947 651.704 458.003 650.648 459.059 649.448C459.443 649.016 459.923 648.44 460.499 647.72C461.123 647 461.795 646.184 462.515 645.272C463.379 644.216 464.267 643.112 465.179 641.96C466.139 640.808 467.027 639.752 467.843 638.792C468.803 637.64 469.763 636.536 470.723 635.48C470.915 635.24 471.131 635.12 471.371 635.12C471.947 635.12 472.235 635.432 472.235 636.056C472.235 636.392 472.091 636.704 471.803 636.992C471.275 637.664 470.699 638.36 470.075 639.08C469.499 639.8 468.947 640.472 468.419 641.096C468.131 641.432 467.555 642.104 466.691 643.112C465.875 644.072 464.915 645.224 463.811 646.568C462.803 647.768 461.747 649.016 460.643 650.312C459.587 651.656 458.603 652.856 457.691 653.912C456.779 654.968 456.035 655.784 455.459 656.36C452.867 658.808 450.251 660.032 447.611 660.032ZM480.155 595.952C477.179 598.304 474.059 601.424 470.795 605.312C467.579 609.2 464.507 613.544 461.579 618.344C463.835 617.192 466.115 615.848 468.419 614.312C470.771 612.728 472.979 611.048 475.043 609.272C477.107 607.496 478.883 605.696 480.371 603.872C481.859 602 482.891 600.2 483.467 598.472C483.659 597.896 483.755 597.344 483.755 596.816C483.755 595.616 483.275 595.016 482.315 595.016C481.643 595.016 480.923 595.328 480.155 595.952ZM483.236 657.152C480.548 657.152 479.204 655.592 479.204 652.472C479.204 650.888 479.612 649.112 480.428 647.144C481.244 645.224 482.204 643.304 483.308 641.384C484.46 639.464 485.492 637.76 486.404 636.272C486.596 635.984 486.932 635.456 487.412 634.688C487.892 633.872 488.42 632.984 488.996 632.024C489.62 631.016 490.196 630.056 490.724 629.144C491.252 628.232 491.66 627.536 491.948 627.056C492.62 625.712 492.956 624.824 492.956 624.392C492.956 623.912 492.596 623.888 491.876 624.32C491.204 624.752 490.1 625.616 488.564 626.912C487.7 627.728 486.62 628.808 485.324 630.152C484.028 631.448 482.684 632.912 481.292 634.544C479.948 636.128 478.652 637.784 477.404 639.512C476.204 641.192 475.244 642.824 474.524 644.408C474.236 645.032 473.852 645.512 473.372 645.848C472.94 646.136 472.508 646.28 472.076 646.28C471.644 646.28 471.284 646.136 470.996 645.848C470.66 645.56 470.492 645.152 470.492 644.624C470.492 644.24 470.588 643.856 470.78 643.472C471.26 642.176 471.932 640.496 472.796 638.432C473.66 636.32 474.596 634.088 475.604 631.736C476.612 629.336 477.62 627.008 478.628 624.752C479.636 622.448 480.524 620.48 481.292 618.848C480.38 619.136 479.564 619.352 478.844 619.496C478.172 619.592 477.572 619.64 477.044 619.64C476.612 619.64 476.324 619.616 476.18 619.568C475.412 619.376 475.028 619.112 475.028 618.776C475.028 618.488 475.484 618.272 476.396 618.128C477.788 618.128 479.732 617.672 482.228 616.76C482.612 615.944 483.02 615.08 483.452 614.168C483.932 613.208 484.436 612.224 484.964 611.216C486.02 609.104 487.22 606.968 488.564 604.808C489.908 602.6 491.372 600.464 492.956 598.4C493.772 597.392 494.612 596.432 495.476 595.52C496.34 594.56 497.252 593.672 498.212 592.856C502.484 589.256 506.78 587.456 511.1 587.456C512.492 587.456 513.572 587.888 514.34 588.752C515.108 589.616 515.492 590.816 515.492 592.352C515.492 593.792 515.036 595.28 514.124 596.816C513.356 598.256 512.228 599.744 510.74 601.28C509.3 602.768 507.524 604.328 505.412 605.96C504.404 606.728 503.396 607.472 502.388 608.192C501.38 608.864 500.348 609.536 499.292 610.208C497.18 611.552 495.02 612.8 492.812 613.952C490.652 615.104 488.588 616.088 486.62 616.904C483.788 622.616 481.22 628.28 478.916 633.896C479.732 632.888 480.716 631.784 481.868 630.584C483.02 629.336 484.052 628.256 484.964 627.344C485.924 626.384 487.004 625.424 488.204 624.464C489.452 623.456 490.7 622.616 491.948 621.944C493.196 621.272 494.276 620.936 495.188 620.936C496.292 620.936 497.06 621.176 497.492 621.656C497.972 622.088 498.212 622.664 498.212 623.384C498.212 624.44 497.876 625.688 497.204 627.128C496.532 628.52 495.86 629.768 495.188 630.872C494.852 631.496 494.228 632.504 493.316 633.896C492.452 635.288 491.588 636.656 490.724 638C490.292 638.624 489.884 639.224 489.5 639.8C489.164 640.328 488.876 640.808 488.636 641.24C487.1 643.64 485.852 645.728 484.892 647.504C483.932 649.328 483.404 650.624 483.308 651.392C483.26 651.68 483.212 651.92 483.164 652.112C483.164 652.352 483.164 652.568 483.164 652.76C483.164 653.624 483.476 654.056 484.1 654.056C484.436 654.056 484.82 653.984 485.252 653.84C485.732 653.696 486.404 653.264 487.268 652.544C488.132 651.824 489.044 650.96 490.004 649.952C490.964 648.992 491.852 648.056 492.668 647.144C493.532 646.232 494.18 645.512 494.612 644.984L499.94 638.792C500.18 638.456 500.42 638.168 500.66 637.928C500.948 637.688 501.212 637.424 501.452 637.136C501.692 636.848 501.908 636.584 502.1 636.344C502.34 636.056 502.58 635.768 502.82 635.48C503.012 635.24 503.252 635.12 503.54 635.12C504.068 635.12 504.332 635.408 504.332 635.984C504.332 636.272 504.188 636.608 503.9 636.992C503.372 637.664 502.796 638.36 502.172 639.08C501.596 639.8 501.044 640.472 500.516 641.096C500.324 641.336 500.06 641.648 499.724 642.032C499.436 642.416 499.1 642.872 498.716 643.4C497.948 644.312 497.108 645.368 496.196 646.568C495.284 647.72 494.42 648.752 493.604 649.664C492.644 650.72 491.54 651.824 490.292 652.976C489.092 654.176 487.868 655.16 486.62 655.928C485.372 656.744 484.244 657.152 483.236 657.152ZM487.988 614.24C489.524 613.52 491.132 612.68 492.812 611.72C496.844 609.464 500.588 606.968 504.044 604.232C504.908 603.512 505.7 602.816 506.42 602.144C507.188 601.424 507.884 600.728 508.508 600.056C511.244 597.128 512.612 594.464 512.612 592.064C512.612 591.68 512.54 591.32 512.396 590.984C512.252 590.648 511.772 590.48 510.956 590.48C509.516 590.48 508.028 590.888 506.492 591.704C505.004 592.472 503.54 593.48 502.1 594.728C500.708 595.976 499.388 597.296 498.14 598.688C496.892 600.08 495.812 601.4 494.9 602.648C493.844 604.136 492.716 605.864 491.516 607.832C490.364 609.8 489.188 611.936 487.988 614.24ZM511.567 647.648C509.791 647.648 508.327 646.904 507.175 645.416C506.071 643.928 505.519 642.08 505.519 639.872C505.519 638.048 505.807 636.32 506.383 634.688C507.535 631.52 509.455 628.52 512.143 625.688C514.063 623.768 516.055 622.232 518.119 621.08C520.231 619.88 522.103 619.28 523.735 619.28C525.127 619.28 526.231 619.64 527.047 620.36C527.911 621.08 528.343 621.944 528.343 622.952C528.343 623.384 528.223 623.912 527.983 624.536C528.511 624.584 529.015 624.632 529.495 624.68C529.975 624.68 530.455 624.68 530.935 624.68C531.895 624.68 532.831 624.632 533.743 624.536C534.703 624.44 535.615 624.296 536.479 624.104H536.839C537.463 624.104 537.775 624.32 537.775 624.752C537.775 625.088 537.487 625.376 536.911 625.616C536.431 625.808 535.639 626 534.535 626.192C533.479 626.384 532.327 626.552 531.079 626.696C529.879 626.792 528.799 626.84 527.839 626.84C527.503 626.84 527.191 626.84 526.903 626.84C526.663 626.84 526.447 626.816 526.255 626.768L525.967 626.912C526.447 627.68 526.687 628.76 526.687 630.152C526.687 632.072 526.207 634.064 525.247 636.128C524.335 638.144 523.111 640.04 521.575 641.816C520.087 643.544 518.455 644.96 516.679 646.064C514.903 647.12 513.199 647.648 511.567 647.648ZM512.215 645.2C513.463 645.2 514.687 644.744 515.887 643.832C517.087 642.92 518.191 641.72 519.199 640.232C520.207 638.744 521.047 637.136 521.719 635.408C522.439 633.68 522.895 632.024 523.087 630.44C523.135 630.152 523.159 629.888 523.159 629.648C523.159 629.36 523.159 629.12 523.159 628.928C523.159 628.208 523.087 627.632 522.943 627.2H522.799C522.175 627.056 521.719 626.912 521.431 626.768C521.143 626.576 520.855 626.336 520.567 626.048L520.495 625.976C520.303 625.784 520.183 625.616 520.135 625.472C520.135 625.28 520.135 625.088 520.135 624.896C520.135 624.464 520.303 624.128 520.639 623.888C520.975 623.6 521.383 623.504 521.863 623.6L525.463 624.248C525.847 623.48 526.039 622.88 526.039 622.448C526.039 621.488 525.295 621.008 523.807 621.008C522.511 621.008 521.095 621.68 519.559 623.024C518.071 624.32 516.631 625.952 515.239 627.92C513.895 629.84 512.719 631.76 511.711 633.68C511.231 634.64 510.823 635.816 510.487 637.208C510.151 638.552 509.983 639.848 509.983 641.096C509.983 642.248 510.151 643.232 510.487 644.048C510.871 644.816 511.447 645.2 512.215 645.2ZM538.279 659.456C535.255 659.456 533.743 657.992 533.743 655.064C533.743 654.248 533.887 653.312 534.175 652.256C534.607 650.576 535.279 648.776 536.191 646.856C537.151 644.936 537.991 643.424 538.711 642.32C539.287 641.456 539.863 640.568 540.439 639.656C541.015 638.744 541.615 637.808 542.239 636.848L545.767 631.232C546.391 630.176 546.703 629.192 546.703 628.28C546.703 627.224 546.295 626.432 545.479 625.904L544.471 625.256L543.895 624.896L543.103 626.192C542.767 626.768 542.431 627.296 542.095 627.776C541.087 629.168 539.935 630.704 538.639 632.384C537.343 634.064 536.095 635.672 534.895 637.208C533.695 638.744 532.687 639.968 531.871 640.88C531.631 641.12 531.391 641.24 531.151 641.24C530.911 641.24 530.695 641.144 530.503 640.952C530.263 640.712 530.143 640.472 530.143 640.232C530.143 640.04 530.239 639.848 530.431 639.656C532.303 637.544 534.103 635.384 535.831 633.176C537.607 630.968 539.215 628.616 540.655 626.12L541.447 624.752L542.239 623.456C541.855 623.12 541.495 622.64 541.159 622.016C540.871 621.344 540.727 620.72 540.727 620.144C540.727 619.712 540.823 619.328 541.015 618.992C541.207 618.656 541.543 618.464 542.023 618.416H542.167C542.839 618.416 543.391 618.752 543.823 619.424C544.351 620.096 544.615 621.344 544.615 623.168C545.239 623.6 545.863 623.936 546.487 624.176C547.111 624.416 547.687 624.632 548.215 624.824C549.175 625.16 549.991 625.544 550.663 625.976C551.383 626.408 551.743 627.224 551.743 628.424C551.743 628.616 551.719 628.856 551.671 629.144C551.671 629.384 551.647 629.624 551.599 629.864C551.407 630.824 550.927 632 550.159 633.392C549.439 634.736 548.599 636.152 547.639 637.64C546.679 639.08 545.743 640.448 544.831 641.744C544.543 642.128 544.279 642.512 544.039 642.896C543.799 643.232 543.559 643.592 543.319 643.976C539.191 650.648 537.319 654.824 537.703 656.504C537.799 656.792 538.015 656.936 538.351 656.936C539.071 656.936 539.935 656.648 540.943 656.072C542.383 655.256 543.727 654.344 544.975 653.336C546.223 652.376 547.519 651.2 548.863 649.808C549.823 648.896 551.071 647.552 552.607 645.776C554.143 644 555.655 642.272 557.143 640.592C557.383 640.256 557.623 639.944 557.863 639.656C558.151 639.368 558.415 639.08 558.655 638.792C559.039 638.216 559.519 637.64 560.095 637.064L561.535 635.48C561.727 635.24 561.943 635.12 562.183 635.12C562.711 635.12 562.975 635.408 562.975 635.984C562.975 636.272 562.831 636.608 562.543 636.992C562.063 637.664 561.511 638.36 560.887 639.08C560.311 639.8 559.759 640.472 559.231 641.096C558.751 641.672 558.223 642.272 557.647 642.896C557.119 643.52 556.591 644.168 556.063 644.84C554.431 646.76 552.751 648.704 551.023 650.672C549.295 652.688 547.663 654.392 546.127 655.784C545.023 656.744 543.847 657.584 542.599 658.304C541.399 659.072 539.959 659.456 538.279 659.456ZM581.606 653.84C578.774 653.84 577.358 652.184 577.358 648.872C577.358 647.192 577.694 645.272 578.366 643.112C579.038 640.904 579.926 638.648 581.03 636.344C582.182 634.04 583.43 631.856 584.774 629.792C586.166 627.68 587.534 625.904 588.878 624.464C589.838 623.552 590.942 623.096 592.19 623.096C592.766 623.096 593.27 623.216 593.702 623.456C594.134 623.696 594.35 624.032 594.35 624.464C594.35 624.896 594.11 625.352 593.63 625.832C593.246 626.216 592.694 626.912 591.974 627.92C591.302 628.88 590.534 629.984 589.67 631.232C588.854 632.48 588.062 633.728 587.294 634.976C586.526 636.224 585.878 637.328 585.35 638.288C584.006 640.88 582.926 643.328 582.11 645.632C581.294 647.888 580.886 649.568 580.886 650.672C580.886 651.488 581.102 651.896 581.534 651.896C582.926 651.896 584.438 651.296 586.07 650.096C587.318 649.136 588.59 647.744 589.886 645.92C591.182 644.096 592.43 642.032 593.63 639.728C594.878 637.424 595.982 635.048 596.942 632.6C597.95 630.104 598.742 627.728 599.318 625.472C599.894 623.168 600.182 621.152 600.182 619.424C600.182 618.32 600.158 617.336 600.11 616.472C600.062 615.56 599.918 614.72 599.678 613.952L599.894 613.592C600.038 613.496 600.182 613.424 600.326 613.376C600.47 613.328 600.638 613.304 600.83 613.304C601.742 613.304 602.582 613.928 603.35 615.176C604.118 616.424 604.502 617.864 604.502 619.496C604.502 625.256 602.582 631.568 598.742 638.432C597.11 641.36 595.286 644.024 593.27 646.424C591.302 648.776 589.334 650.624 587.366 651.968C585.398 653.216 583.478 653.84 581.606 653.84ZM611.617 657.728C609.601 657.728 608.041 656.912 606.937 655.28C605.881 653.696 605.353 651.488 605.353 648.656C605.353 647.696 605.425 646.688 605.569 645.632C605.905 642.944 606.721 640.184 608.017 637.352C609.313 634.52 611.065 631.688 613.273 628.856C614.857 626.792 616.633 625.208 618.601 624.104C620.569 622.952 622.489 622.376 624.361 622.376C625.705 622.376 626.881 622.64 627.889 623.168C629.137 623.888 629.761 625.112 629.761 626.84C629.761 628.088 629.329 629.48 628.465 631.016C627.601 632.504 626.113 633.944 624.001 635.336C621.313 637.016 619.033 638.168 617.161 638.792C615.337 639.368 613.873 639.704 612.769 639.8C612.433 640.328 612.073 641.144 611.689 642.248C611.353 643.304 611.041 644.432 610.753 645.632C610.513 646.784 610.345 647.816 610.249 648.728C610.249 648.92 610.225 649.112 610.177 649.304C610.177 649.544 610.177 649.784 610.177 650.024C610.177 653.288 611.209 654.92 613.273 654.92C614.377 654.92 615.625 654.512 617.017 653.696C618.457 652.88 619.849 651.896 621.193 650.744C622.585 649.592 623.809 648.464 624.865 647.36C625.969 646.304 626.737 645.512 627.169 644.984L632.497 638.792L633.937 637.136C634.177 636.848 634.417 636.56 634.657 636.272C634.897 635.984 635.137 635.72 635.377 635.48C635.569 635.24 635.785 635.12 636.025 635.12C636.553 635.12 636.817 635.408 636.817 635.984C636.817 636.272 636.673 636.608 636.385 636.992C635.905 637.664 635.353 638.36 634.729 639.08C634.153 639.8 633.601 640.472 633.073 641.096L630.625 644.048C629.665 645.2 628.633 646.424 627.529 647.72C626.425 649.064 625.345 650.24 624.289 651.248C619.825 655.568 615.601 657.728 611.617 657.728ZM613.921 637.784C614.881 637.544 616.009 637.04 617.305 636.272C618.649 635.504 619.921 634.688 621.121 633.824C622.369 632.96 623.329 632.24 624.001 631.664C625.009 630.848 625.777 629.936 626.305 628.928C626.833 627.92 627.097 627.056 627.097 626.336C627.097 625.328 626.689 624.824 625.873 624.824C625.489 624.824 625.081 624.92 624.649 625.112C623.497 625.64 622.249 626.648 620.905 628.136C619.561 629.624 618.265 631.256 617.017 633.032C615.817 634.808 614.785 636.392 613.921 637.784ZM643.242 659.456C640.218 659.456 638.706 657.992 638.706 655.064C638.706 654.248 638.85 653.312 639.138 652.256C639.57 650.576 640.242 648.776 641.154 646.856C642.114 644.936 642.954 643.424 643.674 642.32C644.25 641.456 644.826 640.568 645.402 639.656C645.978 638.744 646.578 637.808 647.202 636.848L650.73 631.232C651.354 630.176 651.666 629.192 651.666 628.28C651.666 627.224 651.258 626.432 650.442 625.904L649.434 625.256L648.858 624.896L648.066 626.192C647.73 626.768 647.394 627.296 647.058 627.776C646.05 629.168 644.898 630.704 643.602 632.384C642.306 634.064 641.058 635.672 639.858 637.208C638.658 638.744 637.65 639.968 636.834 640.88C636.594 641.12 636.354 641.24 636.114 641.24C635.874 641.24 635.658 641.144 635.466 640.952C635.226 640.712 635.106 640.472 635.106 640.232C635.106 640.04 635.202 639.848 635.394 639.656C637.266 637.544 639.066 635.384 640.794 633.176C642.57 630.968 644.178 628.616 645.618 626.12L646.41 624.752L647.202 623.456C646.818 623.12 646.458 622.64 646.122 622.016C645.834 621.344 645.69 620.72 645.69 620.144C645.69 619.712 645.786 619.328 645.978 618.992C646.17 618.656 646.506 618.464 646.986 618.416H647.13C647.802 618.416 648.354 618.752 648.786 619.424C649.314 620.096 649.578 621.344 649.578 623.168C650.202 623.6 650.826 623.936 651.45 624.176C652.074 624.416 652.65 624.632 653.178 624.824C654.138 625.16 654.954 625.544 655.626 625.976C656.346 626.408 656.706 627.224 656.706 628.424C656.706 628.616 656.682 628.856 656.634 629.144C656.634 629.384 656.61 629.624 656.562 629.864C656.37 630.824 655.89 632 655.122 633.392C654.402 634.736 653.562 636.152 652.602 637.64C651.642 639.08 650.706 640.448 649.794 641.744C649.506 642.128 649.242 642.512 649.002 642.896C648.762 643.232 648.522 643.592 648.282 643.976C644.154 650.648 642.282 654.824 642.666 656.504C642.762 656.792 642.978 656.936 643.314 656.936C644.034 656.936 644.898 656.648 645.906 656.072C647.346 655.256 648.69 654.344 649.938 653.336C651.186 652.376 652.482 651.2 653.826 649.808C654.786 648.896 656.034 647.552 657.57 645.776C659.106 644 660.618 642.272 662.106 640.592C662.346 640.256 662.586 639.944 662.826 639.656C663.114 639.368 663.378 639.08 663.618 638.792C664.002 638.216 664.482 637.64 665.058 637.064L666.498 635.48C666.69 635.24 666.906 635.12 667.146 635.12C667.674 635.12 667.938 635.408 667.938 635.984C667.938 636.272 667.794 636.608 667.506 636.992C667.026 637.664 666.474 638.36 665.85 639.08C665.274 639.8 664.722 640.472 664.194 641.096C663.714 641.672 663.186 642.272 662.61 642.896C662.082 643.52 661.554 644.168 661.026 644.84C659.394 646.76 657.714 648.704 655.986 650.672C654.258 652.688 652.626 654.392 651.09 655.784C649.986 656.744 648.81 657.584 647.562 658.304C646.362 659.072 644.922 659.456 643.242 659.456ZM662.958 658.808C661.038 658.952 659.55 658.592 658.494 657.728C657.39 656.912 656.838 655.928 656.838 654.776C656.838 654.008 657.102 653.216 657.63 652.4C658.11 651.632 658.902 650.936 660.006 650.312C661.398 649.496 662.91 648.848 664.542 648.368C666.126 647.888 667.758 647.456 669.438 647.072C670.254 646.88 671.094 646.688 671.958 646.496C672.822 646.256 673.662 646.016 674.478 645.776L675.774 643.04C676.302 641.888 676.83 640.424 677.358 638.648C677.886 636.824 678.366 634.952 678.798 633.032C679.23 631.064 679.542 629.336 679.734 627.848C677.862 629.768 676.038 631.736 674.262 633.752C672.486 635.768 670.326 638.216 667.782 641.096C667.446 641.576 667.134 641.816 666.846 641.816C666.462 641.816 666.27 641.528 666.27 640.952C666.27 640.328 666.582 639.632 667.206 638.864L672.39 632.672C673.206 631.664 674.07 630.656 674.982 629.648C675.942 628.64 676.95 627.608 678.006 626.552L679.734 624.824C680.454 620.792 681.942 618.776 684.198 618.776C685.014 618.776 685.662 618.992 686.142 619.424C686.622 619.808 686.862 620.312 686.862 620.936C686.862 621.224 686.838 621.44 686.79 621.584L686.574 621.872C686.238 621.968 685.614 622.424 684.702 623.24C683.79 624.008 682.878 624.8 681.966 625.616C682.014 626.048 682.038 626.504 682.038 626.984C682.086 627.464 682.11 627.992 682.11 628.568C682.11 630.824 681.894 633.68 681.462 637.136C681.27 638.192 681.054 639.248 680.814 640.304C680.622 641.36 680.382 642.392 680.094 643.4C681.198 642.776 682.23 642.104 683.19 641.384C684.15 640.616 685.086 639.776 685.998 638.864L686.43 638.432C686.766 638.096 687.078 637.736 687.366 637.352C687.654 636.968 687.966 636.584 688.302 636.2C688.446 636.008 688.638 635.912 688.878 635.912C689.118 635.912 689.31 636.032 689.454 636.272C689.646 636.464 689.742 636.68 689.742 636.92C689.742 637.16 689.67 637.352 689.526 637.496C688.614 638.792 687.63 639.968 686.574 641.024C684.702 642.8 682.254 644.504 679.23 646.136C676.11 654.056 670.686 658.28 662.958 658.808ZM661.374 656.432C661.854 656.432 662.406 656.36 663.03 656.216C664.566 655.832 666.174 655.064 667.854 653.912C669.582 652.76 671.262 650.96 672.894 648.512C671.982 648.752 671.07 648.968 670.158 649.16C669.294 649.4 668.406 649.64 667.494 649.88C665.526 650.312 663.486 651.104 661.374 652.256C660.606 652.688 660.054 653.144 659.718 653.624C659.382 654.152 659.214 654.608 659.214 654.992C659.214 655.952 659.934 656.432 661.374 656.432ZM707.435 647.648C706.475 647.648 705.683 647.288 705.059 646.568C704.483 645.848 704.195 644.84 704.195 643.544C704.195 642.632 704.339 641.648 704.627 640.592C704.723 640.208 704.963 639.56 705.347 638.648C705.779 637.688 706.211 636.728 706.643 635.768C706.787 635.528 706.907 635.288 707.003 635.048C705.611 636.872 704.075 638.504 702.395 639.944C700.715 641.336 698.939 642.032 697.067 642.032C695.435 641.984 694.283 641.552 693.611 640.736C692.939 639.872 692.603 638.84 692.603 637.64C692.603 636.296 692.891 634.832 693.467 633.248C694.091 631.664 694.763 630.272 695.483 629.072C696.731 627.104 698.243 625.184 700.019 623.312C701.843 621.392 703.787 619.808 705.851 618.56C707.915 617.312 709.883 616.688 711.755 616.688C713.867 616.688 715.787 617.384 717.515 618.776C717.947 619.112 718.235 619.472 718.379 619.856C718.571 620.24 718.667 620.576 718.667 620.864C718.667 621.296 718.547 621.656 718.307 621.944C718.067 622.232 717.779 622.376 717.443 622.376C716.915 622.376 716.507 621.992 716.219 621.224C715.931 620.408 715.547 619.832 715.067 619.496C714.587 619.16 714.059 618.992 713.483 618.992C712.331 618.992 711.011 619.52 709.523 620.576C708.035 621.632 706.571 622.928 705.131 624.464C703.451 626.144 701.963 627.992 700.667 630.008C699.419 631.976 698.459 633.776 697.787 635.408C697.163 636.8 696.851 637.856 696.851 638.576C696.851 639.248 697.115 639.584 697.643 639.584C698.363 639.584 699.467 638.984 700.955 637.784C702.011 636.968 703.139 635.912 704.339 634.616C705.587 633.32 706.763 632.024 707.867 630.728C708.971 629.432 709.835 628.424 710.459 627.704C710.699 627.32 710.915 626.96 711.107 626.624C711.347 626.288 711.563 626 711.755 625.76C712.283 625.04 713.099 624.68 714.203 624.68C714.923 624.68 715.523 624.848 716.003 625.184C716.531 625.52 716.675 625.976 716.435 626.552C716.291 626.792 716.099 627.152 715.859 627.632C715.619 628.064 715.331 628.616 714.995 629.288C714.371 630.44 713.675 631.784 712.907 633.32C712.139 634.856 711.419 636.296 710.747 637.64C710.075 638.984 709.571 640.04 709.235 640.808C708.515 642.248 708.155 643.28 708.155 643.904C708.155 644.336 708.323 644.552 708.659 644.552C708.803 644.552 708.971 644.504 709.163 644.408C709.403 644.312 709.667 644.192 709.955 644.048C710.819 643.568 711.755 642.896 712.763 642.032C713.771 641.168 714.851 640.064 716.003 638.72C716.531 638.192 717.011 637.688 717.443 637.208C717.875 636.68 718.283 636.176 718.667 635.696C718.811 635.456 719.003 635.336 719.243 635.336C719.819 635.336 720.107 635.672 720.107 636.344C720.107 636.68 719.987 636.968 719.747 637.208C719.219 637.88 718.691 638.528 718.163 639.152C717.635 639.776 717.083 640.4 716.507 641.024C715.979 641.648 715.427 642.272 714.851 642.896C714.323 643.52 713.747 644.096 713.123 644.624C712.067 645.68 711.035 646.448 710.027 646.928C709.067 647.408 708.203 647.648 707.435 647.648ZM717.371 613.016C716.411 613.016 715.619 612.848 714.995 612.512C714.419 612.128 713.867 611.768 713.339 611.432C712.811 611.048 712.163 610.856 711.395 610.856C710.627 610.856 710.027 611.144 709.595 611.72C709.211 612.248 708.875 612.656 708.587 612.944C708.395 612.992 708.227 612.992 708.083 612.944C707.939 612.896 707.867 612.848 707.867 612.8C707.867 612.224 708.083 611.576 708.515 610.856C708.947 610.136 709.499 609.512 710.171 608.984C710.891 608.408 711.611 608.12 712.331 608.12C713.195 608.12 713.987 608.312 714.707 608.696C715.475 609.032 716.219 609.392 716.939 609.776C717.659 610.112 718.379 610.28 719.099 610.28C719.627 610.28 720.035 610.136 720.323 609.848C720.611 609.512 720.947 608.96 721.331 608.192C721.475 608.192 721.595 608.24 721.691 608.336C721.835 608.384 721.907 608.648 721.907 609.128C721.667 610.28 721.019 611.216 719.963 611.936C718.955 612.656 718.091 613.016 717.371 613.016ZM727.538 647.648C725.762 647.648 724.298 646.904 723.146 645.416C722.042 643.928 721.49 642.08 721.49 639.872C721.49 638.048 721.778 636.32 722.354 634.688C723.506 631.52 725.426 628.52 728.114 625.688C730.034 623.768 732.026 622.232 734.09 621.08C736.202 619.88 738.074 619.28 739.706 619.28C741.098 619.28 742.202 619.64 743.018 620.36C743.882 621.08 744.314 621.944 744.314 622.952C744.314 623.384 744.194 623.912 743.954 624.536C744.482 624.584 744.986 624.632 745.466 624.68C745.946 624.68 746.426 624.68 746.906 624.68C747.866 624.68 748.802 624.632 749.714 624.536C750.674 624.44 751.586 624.296 752.45 624.104H752.81C753.434 624.104 753.746 624.32 753.746 624.752C753.746 625.088 753.458 625.376 752.882 625.616C752.402 625.808 751.61 626 750.506 626.192C749.45 626.384 748.298 626.552 747.05 626.696C745.85 626.792 744.77 626.84 743.81 626.84C743.474 626.84 743.162 626.84 742.874 626.84C742.634 626.84 742.418 626.816 742.226 626.768L741.938 626.912C742.418 627.68 742.658 628.76 742.658 630.152C742.658 632.072 742.178 634.064 741.218 636.128C740.306 638.144 739.082 640.04 737.546 641.816C736.058 643.544 734.426 644.96 732.65 646.064C730.874 647.12 729.17 647.648 727.538 647.648ZM728.186 645.2C729.434 645.2 730.658 644.744 731.858 643.832C733.058 642.92 734.162 641.72 735.17 640.232C736.178 638.744 737.018 637.136 737.69 635.408C738.41 633.68 738.866 632.024 739.058 630.44C739.106 630.152 739.13 629.888 739.13 629.648C739.13 629.36 739.13 629.12 739.13 628.928C739.13 628.208 739.058 627.632 738.914 627.2H738.77C738.146 627.056 737.69 626.912 737.402 626.768C737.114 626.576 736.826 626.336 736.538 626.048L736.466 625.976C736.274 625.784 736.154 625.616 736.106 625.472C736.106 625.28 736.106 625.088 736.106 624.896C736.106 624.464 736.274 624.128 736.61 623.888C736.946 623.6 737.354 623.504 737.834 623.6L741.434 624.248C741.818 623.48 742.01 622.88 742.01 622.448C742.01 621.488 741.266 621.008 739.778 621.008C738.482 621.008 737.066 621.68 735.53 623.024C734.042 624.32 732.602 625.952 731.21 627.92C729.866 629.84 728.69 631.76 727.682 633.68C727.202 634.64 726.794 635.816 726.458 637.208C726.122 638.552 725.954 639.848 725.954 641.096C725.954 642.248 726.122 643.232 726.458 644.048C726.842 644.816 727.418 645.2 728.186 645.2Z" fill="#CF2395"/>
</g>
</g>
<defs>
<filter id="filter0_d_39_45" x="249.568" y="587.456" width="508.179" height="80.5759" filterUnits="userSpaceOnUse" color-interpolation-filters="sRGB">
<feFlood flood-opacity="0" result="BackgroundImageFix"/>
<feColorMatrix in="SourceAlpha" type="matrix" values="0 0 0 0 0 0 0 0 0 0 0 0 0 0 0 0 0 0 127 0" result="hardAlpha"/>
<feOffset dy="4"/>
<feGaussianBlur stdDeviation="2"/>
<feComposite in2="hardAlpha" operator="out"/>
<feColorMatrix type="matrix" values="0 0 0 0 0 0 0 0 0 0 0 0 0 0 0 0 0 0 0.25 0"/>
<feBlend mode="normal" in2="BackgroundImageFix" result="effect1_dropShadow_39_45"/>
<feBlend mode="normal" in="SourceGraphic" in2="effect1_dropShadow_39_45" result="shape"/>
</filter>
<clipPath id="clip0_39_45">
<rect width="1000" height="898" fill="white"/>
</clipPath>
</defs>
</svg>
